<mxfile host="app.diagrams.net" modified="2024-06-03T08:36:41.367Z" agent="Mozilla/5.0 (Windows NT 10.0; Win64; x64) AppleWebKit/537.36 (KHTML, like Gecko) Chrome/125.0.0.0 Safari/537.36" etag="VUMjaUU3sbYLXEHIUP8Z" version="24.4.10" type="device">
  <diagram name="Страница — 1" id="kAfhrjpM3esUJZUGjfEe">
    <mxGraphModel dx="1511" dy="787" grid="1" gridSize="10" guides="1" tooltips="1" connect="1" arrows="1" fold="1" page="1" pageScale="1" pageWidth="827" pageHeight="1169" math="0" shadow="0">
      <root>
        <mxCell id="0" />
        <mxCell id="1" parent="0" />
        <mxCell id="-MQLdTyeGXj2tNFR3Nlr-1" style="edgeStyle=none;curved=1;rounded=0;orthogonalLoop=1;jettySize=auto;html=1;fontSize=12;startSize=8;endSize=8;" parent="1" source="-MQLdTyeGXj2tNFR3Nlr-2" target="-MQLdTyeGXj2tNFR3Nlr-4" edge="1">
          <mxGeometry relative="1" as="geometry" />
        </mxCell>
        <mxCell id="-MQLdTyeGXj2tNFR3Nlr-2" value="" style="ellipse;whiteSpace=wrap;html=1;aspect=fixed;" parent="1" vertex="1">
          <mxGeometry x="160" y="40" width="40" height="40" as="geometry" />
        </mxCell>
        <mxCell id="-MQLdTyeGXj2tNFR3Nlr-3" style="edgeStyle=none;curved=1;rounded=0;orthogonalLoop=1;jettySize=auto;html=1;fontSize=12;startSize=8;endSize=8;" parent="1" source="-MQLdTyeGXj2tNFR3Nlr-4" target="-MQLdTyeGXj2tNFR3Nlr-6" edge="1">
          <mxGeometry relative="1" as="geometry" />
        </mxCell>
        <mxCell id="-MQLdTyeGXj2tNFR3Nlr-4" value="Извлечение значений из DataFrame" style="rounded=0;whiteSpace=wrap;html=1;" parent="1" vertex="1">
          <mxGeometry x="115" y="100" width="130" height="40" as="geometry" />
        </mxCell>
        <mxCell id="YQ7mIzfrbfJ_vOfUMCTP-1" style="edgeStyle=none;curved=1;rounded=0;orthogonalLoop=1;jettySize=auto;html=1;fontSize=12;startSize=8;endSize=8;" edge="1" parent="1" source="-MQLdTyeGXj2tNFR3Nlr-6" target="-MQLdTyeGXj2tNFR3Nlr-13">
          <mxGeometry relative="1" as="geometry" />
        </mxCell>
        <mxCell id="-MQLdTyeGXj2tNFR3Nlr-6" value="Сортировка значений параметра в порядке возрастания" style="rounded=0;whiteSpace=wrap;html=1;" parent="1" vertex="1">
          <mxGeometry x="115" y="160" width="130" height="50" as="geometry" />
        </mxCell>
        <mxCell id="-MQLdTyeGXj2tNFR3Nlr-9" style="edgeStyle=none;curved=1;rounded=0;orthogonalLoop=1;jettySize=auto;html=1;entryX=0.5;entryY=0;entryDx=0;entryDy=0;fontSize=12;startSize=8;endSize=8;" parent="1" source="-MQLdTyeGXj2tNFR3Nlr-10" target="-MQLdTyeGXj2tNFR3Nlr-11" edge="1">
          <mxGeometry relative="1" as="geometry" />
        </mxCell>
        <mxCell id="-MQLdTyeGXj2tNFR3Nlr-10" value="Получение результирующего значения&amp;nbsp;" style="rounded=0;whiteSpace=wrap;html=1;" parent="1" vertex="1">
          <mxGeometry x="115" y="400" width="130" height="50" as="geometry" />
        </mxCell>
        <mxCell id="-MQLdTyeGXj2tNFR3Nlr-11" value="" style="ellipse;whiteSpace=wrap;html=1;aspect=fixed;" parent="1" vertex="1">
          <mxGeometry x="160" y="470" width="40" height="40" as="geometry" />
        </mxCell>
        <mxCell id="-MQLdTyeGXj2tNFR3Nlr-18" style="edgeStyle=orthogonalEdgeStyle;rounded=0;orthogonalLoop=1;jettySize=auto;html=1;entryX=0.75;entryY=0;entryDx=0;entryDy=0;fontSize=12;startSize=8;endSize=8;exitX=1;exitY=0.5;exitDx=0;exitDy=0;" parent="1" source="-MQLdTyeGXj2tNFR3Nlr-13" target="-MQLdTyeGXj2tNFR3Nlr-16" edge="1">
          <mxGeometry relative="1" as="geometry" />
        </mxCell>
        <mxCell id="-MQLdTyeGXj2tNFR3Nlr-13" value="Определение середины" style="rhombus;whiteSpace=wrap;html=1;" parent="1" vertex="1">
          <mxGeometry x="80" y="230" width="200" height="60" as="geometry" />
        </mxCell>
        <mxCell id="-MQLdTyeGXj2tNFR3Nlr-19" style="edgeStyle=none;curved=1;rounded=0;orthogonalLoop=1;jettySize=auto;html=1;entryX=0;entryY=0.5;entryDx=0;entryDy=0;fontSize=12;startSize=8;endSize=8;" parent="1" source="-MQLdTyeGXj2tNFR3Nlr-15" target="-MQLdTyeGXj2tNFR3Nlr-10" edge="1">
          <mxGeometry relative="1" as="geometry" />
        </mxCell>
        <mxCell id="-MQLdTyeGXj2tNFR3Nlr-15" value="Значение, находящееся в середине отсортированного списка" style="rounded=0;whiteSpace=wrap;html=1;" parent="1" vertex="1">
          <mxGeometry x="10" y="320" width="150" height="50" as="geometry" />
        </mxCell>
        <mxCell id="-MQLdTyeGXj2tNFR3Nlr-20" style="edgeStyle=none;curved=1;rounded=0;orthogonalLoop=1;jettySize=auto;html=1;entryX=1;entryY=0.5;entryDx=0;entryDy=0;fontSize=12;startSize=8;endSize=8;" parent="1" source="-MQLdTyeGXj2tNFR3Nlr-16" target="-MQLdTyeGXj2tNFR3Nlr-10" edge="1">
          <mxGeometry relative="1" as="geometry" />
        </mxCell>
        <mxCell id="-MQLdTyeGXj2tNFR3Nlr-16" value="Среднее арифметическое двух значений, находящихся посередине" style="rounded=0;whiteSpace=wrap;html=1;" parent="1" vertex="1">
          <mxGeometry x="200" y="320" width="150" height="50" as="geometry" />
        </mxCell>
        <mxCell id="-MQLdTyeGXj2tNFR3Nlr-17" style="edgeStyle=orthogonalEdgeStyle;rounded=0;orthogonalLoop=1;jettySize=auto;html=1;entryX=0.25;entryY=0;entryDx=0;entryDy=0;fontSize=12;startSize=8;endSize=8;exitX=0;exitY=0.5;exitDx=0;exitDy=0;" parent="1" source="-MQLdTyeGXj2tNFR3Nlr-13" target="-MQLdTyeGXj2tNFR3Nlr-15" edge="1">
          <mxGeometry relative="1" as="geometry" />
        </mxCell>
        <mxCell id="-MQLdTyeGXj2tNFR3Nlr-22" value="Кол-во наблюдений - нечетное" style="text;html=1;align=center;verticalAlign=middle;whiteSpace=wrap;rounded=0;fontSize=11;labelBackgroundColor=default;" parent="1" vertex="1">
          <mxGeometry x="-10" y="270" width="120" height="30" as="geometry" />
        </mxCell>
        <mxCell id="-MQLdTyeGXj2tNFR3Nlr-23" value="Кол-во наблюдений - четное" style="text;html=1;align=center;verticalAlign=middle;whiteSpace=wrap;rounded=0;fontSize=11;labelBackgroundColor=default;" parent="1" vertex="1">
          <mxGeometry x="250" y="270" width="120" height="30" as="geometry" />
        </mxCell>
      </root>
    </mxGraphModel>
  </diagram>
</mxfile>
